<svg xmlns="http://www.w3.org/2000/svg" version="1.1" xmlns:xlink="http://www.w3.org/1999/xlink" xmlns:svgjs="http://svgjs.dev/svgjs" width="1500" height="393" viewBox="0 0 1500 393"><g transform="matrix(1,0,0,1,-0.9090909090909918,-41.393993845422415)"><svg viewBox="0 0 396 104" data-background-color="#ffffff" preserveAspectRatio="xMidYMid meet" height="393" width="1500" xmlns="http://www.w3.org/2000/svg" xmlns:xlink="http://www.w3.org/1999/xlink"><g id="tight-bounds" transform="matrix(1,0,0,1,0.2400000000000091,10.954135775887863)"><svg viewBox="0 0 395.52 92.8805597150003" height="92.8805597150003" width="395.52"><g><svg viewBox="0 0 562.1227453530156 132.00413434698797" height="92.8805597150003" width="395.52"><g transform="matrix(1,0,0,1,166.60274535301565,39.90459729397591)"><svg viewBox="0 0 395.52 52.194939759036146" height="52.194939759036146" width="395.52"><g id="textblocktransform"><svg viewBox="0 0 395.52 52.194939759036146" height="52.194939759036146" width="395.52" id="textblock"><g><svg viewBox="0 0 395.52 52.194939759036146" height="52.194939759036146" width="395.52"><g transform="matrix(1,0,0,1,0,0)"><svg width="395.52" viewBox="0.58 -34.35 265.78000000000003 35.05" height="52.194939759036146" data-palette-color="#d69723"><g class="wordmark-text-0" data-fill-palette-color="primary" id="text-0"><path d="M8.47 0L0.58 0 9.73-31.95 21.48-31.95 30.58 0 22.68 0 15.9-26.8 15.33-26.8 8.47 0ZM22.75-7.53L8.35-7.53 8.35-13.6 22.75-13.6 22.75-7.53ZM33.47-24.58L41.12-24.58 41.12-10.13Q41.12-8.78 41.47-7.79 41.82-6.8 42.65-6.26 43.47-5.73 44.9-5.73L44.9-5.73Q46.1-5.73 46.98-6.15 47.87-6.58 48.48-7.3 49.1-8.03 49.4-8.9L49.4-8.9 50.57-5.33 49.27-5.33Q48.87-3.68 47.96-2.33 47.05-0.98 45.46-0.2 43.87 0.58 41.4 0.58L41.4 0.58Q38.67 0.58 36.91-0.49 35.15-1.55 34.31-3.65 33.47-5.75 33.47-8.9L33.47-8.9 33.47-24.58ZM49.27-24.58L56.92-24.58 56.92 0 49.32 0 49.57-6.15 49.27-6.85 49.27-24.58ZM71.84 0.55L71.84 0.55Q68.57 0.55 66.63-0.44 64.7-1.43 63.85-3.4 63-5.38 63-8.28L63-8.28 63-22 70.59-22 70.59-9.5Q70.59-7.7 71.41-6.86 72.22-6.03 74.45-6.03L74.45-6.03Q75.67-6.03 76.87-6.3 78.07-6.58 79.05-7L79.05-7 78.4-0.68Q77.12-0.13 75.46 0.21 73.8 0.55 71.84 0.55ZM78.15-18.48L59.7-18.48 59.7-24.48 78.82-24.48 78.15-18.48ZM70.37-23.93L63.1-23.93 63.07-30.28 70.65-31 70.37-23.93ZM93.42 0.7L93.42 0.7Q87.47 0.7 84.43-2.26 81.39-5.23 81.39-10.6L81.39-10.6 81.39-13.83Q81.39-19.28 84.44-22.29 87.49-25.3 93.42-25.3L93.42-25.3Q99.34-25.3 102.38-22.29 105.42-19.28 105.42-13.83L105.42-13.83 105.42-10.6Q105.42-5.23 102.39-2.26 99.37 0.7 93.42 0.7ZM93.42-5.33L93.42-5.33Q95.54-5.33 96.66-6.61 97.77-7.9 97.77-10.28L97.77-10.28 97.77-14.15Q97.77-16.65 96.66-17.95 95.54-19.25 93.42-19.25L93.42-19.25Q91.29-19.25 90.18-17.95 89.07-16.65 89.07-14.15L89.07-14.15 89.07-10.28Q89.07-7.9 90.18-6.61 91.29-5.33 93.42-5.33Z" fill="#d69723" data-fill-palette-color="primary"></path><path d="M131.67 0.68L131.67 0.68Q129.44 0.68 127.51 0.39 125.57 0.1 123.98-0.36 122.39-0.83 121.19-1.33L121.19-1.33 120.52-8.53Q122.49-7.6 125.19-6.81 127.89-6.03 130.92-6.03L130.92-6.03Q133.84-6.03 135.08-6.76 136.32-7.5 136.32-9.08L136.32-9.08 136.32-9.25Q136.32-10.3 135.76-10.96 135.19-11.63 133.88-12.19 132.57-12.75 130.34-13.4L130.34-13.4Q126.99-14.4 124.76-15.63 122.52-16.85 121.42-18.69 120.32-20.53 120.32-23.35L120.32-23.35 120.32-23.68Q120.32-28.03 123.28-30.33 126.24-32.63 131.99-32.63L131.99-32.63Q135.44-32.63 137.96-32.02 140.47-31.43 142.22-30.6L142.22-30.6 142.89-23.9Q140.97-24.83 138.53-25.46 136.09-26.1 133.32-26.1L133.32-26.1Q131.37-26.1 130.26-25.78 129.14-25.45 128.69-24.84 128.24-24.23 128.24-23.35L128.24-23.35 128.24-23.25Q128.24-22.35 128.76-21.68 129.27-21 130.61-20.38 131.94-19.75 134.42-19.03L134.42-19.03Q137.74-18.05 139.93-16.94 142.12-15.83 143.21-14.06 144.29-12.3 144.29-9.38L144.29-9.38 144.29-8.97Q144.29-4.15 141.17-1.74 138.04 0.68 131.67 0.68ZM162.34 0L151.42 0 146.49-24.58 154.24-24.58 157.29-5.4 157.74-5.4 160.74-23.98 170.09-23.98 173.14-5.4 173.57-5.4 176.64-24.58 184.32-24.58 179.39 0 168.51 0 166.04-15.65 165.62-18.4 165.26-18.4 164.82-15.65 162.34 0ZM195.19 0L187.54 0 187.54-24.58 195.19-24.58 195.19 0ZM191.36-26.9L191.36-26.9Q189.21-26.9 188.24-27.89 187.26-28.88 187.26-30.55L187.26-30.55 187.26-30.73Q187.26-32.4 188.24-33.38 189.21-34.35 191.36-34.35L191.36-34.35Q193.46-34.35 194.45-33.38 195.44-32.4 195.44-30.73L195.44-30.73 195.44-30.55Q195.44-28.85 194.45-27.88 193.46-26.9 191.36-26.9ZM210.11 0.55L210.11 0.55Q206.84 0.55 204.9-0.44 202.96-1.43 202.11-3.4 201.26-5.38 201.26-8.28L201.26-8.28 201.26-22 208.86-22 208.86-9.5Q208.86-7.7 209.67-6.86 210.49-6.03 212.71-6.03L212.71-6.03Q213.94-6.03 215.14-6.3 216.34-6.58 217.31-7L217.31-7 216.66-0.68Q215.39-0.13 213.72 0.21 212.06 0.55 210.11 0.55ZM216.41-18.48L197.96-18.48 197.96-24.48 217.09-24.48 216.41-18.48ZM208.64-23.93L201.36-23.93 201.34-30.28 208.91-31 208.64-23.93ZM231.16 0.65L231.16 0.65Q225.31 0.65 222.48-2.43 219.66-5.5 219.66-11.08L219.66-11.08 219.66-13.63Q219.66-19.1 222.48-22.18 225.31-25.25 231.13-25.25L231.13-25.25Q232.63-25.25 233.93-25.04 235.23-24.83 236.33-24.45 237.43-24.08 238.26-23.65L238.26-23.65 238.88-17.32Q237.66-18.03 236.18-18.49 234.71-18.95 232.86-18.95L232.86-18.95Q229.96-18.95 228.66-17.55 227.36-16.15 227.36-13.5L227.36-13.5 227.36-11.38Q227.36-8.68 228.73-7.23 230.11-5.78 233.03-5.78L233.03-5.78Q234.86-5.78 236.32-6.21 237.78-6.65 239.11-7.35L239.11-7.35 238.51-1Q237.21-0.3 235.31 0.18 233.41 0.65 231.16 0.65ZM266.36 0L258.71 0 258.71-14.45Q258.71-15.8 258.36-16.79 258.01-17.78 257.19-18.3 256.38-18.82 254.93-18.82L254.93-18.82Q253.76-18.82 252.86-18.41 251.96-18 251.37-17.29 250.78-16.57 250.46-15.68L250.46-15.68 248.91-19.25 250.68-19.25Q251.06-20.93 251.96-22.25 252.86-23.58 254.44-24.36 256.03-25.15 258.43-25.15L258.43-25.15Q261.18-25.15 262.93-24.09 264.68-23.03 265.52-20.93 266.36-18.82 266.36-15.68L266.36-15.68 266.36 0ZM250.56 0L242.91 0 242.91-33.02 250.51-33.02 250.51-25.68 250.38-17.57 250.56-16.98 250.56 0Z" fill="#575c0e" data-fill-palette-color="accent"></path></g></svg></g></svg></g></svg></g></svg></g><g><svg viewBox="0 0 154.28077275446142 132.00413434698797" height="132.00413434698797" width="154.28077275446142"><g><svg xmlns="http://www.w3.org/2000/svg" data-name="Layer 1" viewBox="9 14.91 82 70.16" x="0" y="0" height="132.00413434698797" width="154.28077275446142" class="icon-icon-0" data-fill-palette-color="accent" id="icon-0"><path d="M79.71 74.26H20.29C14.06 74.26 9 70 9 64.76V46.34C9 41.1 14.06 36.84 20.29 36.84H79.71C85.93 36.84 91 41.1 91 46.34V64.76C91 70 85.94 74.26 79.71 74.26M20.29 38.83C15.17 38.83 11 42.2 11 46.33V64.76C11 68.9 15.17 72.26 20.29 72.26H79.71C84.83 72.26 89 68.89 89 64.76V46.34C89 42.2 84.83 38.84 79.71 38.84Z" fill="#575c0e" data-fill-palette-color="accent"></path><path d="M61.47 54.28H38.53C37.19 54.28 36.14 52.97 36.14 51.28S37.14 48.28 38.53 48.28H61.47C62.81 48.28 63.85 49.59 63.85 51.28S62.81 54.28 61.47 54.28M61.47 50.28H38.53A1.12 1.12 0 0 0 38.14 51.28C38.14 51.91 38.43 52.28 38.53 52.28H61.47A1.11 1.11 0 0 0 61.85 51.28C61.86 50.67 61.56 50.33 61.47 50.31Z" fill="#575c0e" data-fill-palette-color="accent"></path><path d="M61.47 62.79H38.53C37.19 62.79 36.14 61.48 36.14 59.79S37.14 56.79 38.53 56.79H61.47C62.81 56.79 63.85 58.1 63.85 59.79S62.81 62.79 61.47 62.79M61.47 58.79H38.53A1.12 1.12 0 0 0 38.14 59.79C38.14 60.42 38.43 60.79 38.53 60.79H61.47A1.12 1.12 0 0 0 61.85 59.79C61.86 59.17 61.56 58.83 61.47 58.81Z" fill="#575c0e" data-fill-palette-color="accent"></path><path d="M25.41 63.79A8.25 8.25 0 1 1 33.66 55.54 8.26 8.26 0 0 1 25.41 63.79M25.41 49.3A6.25 6.25 0 1 0 31.66 55.55 6.25 6.25 0 0 0 25.41 49.3" fill="#575c0e" data-fill-palette-color="accent"></path><path d="M74.59 63.79A8.25 8.25 0 1 1 82.84 55.54 8.26 8.26 0 0 1 74.59 63.79M74.59 49.3A6.25 6.25 0 1 0 80.84 55.55 6.25 6.25 0 0 0 74.59 49.3" fill="#575c0e" data-fill-palette-color="accent"></path><path d="M79.71 38.83A1 1 0 0 1 78.71 37.83V24.83C78.71 20.47 74.21 16.91 68.71 16.91H31.31C25.78 16.91 21.31 20.46 21.31 24.83V37.83A1 1 0 0 1 19.31 37.83V24.83C19.31 19.36 24.71 14.91 31.31 14.91H68.69C75.32 14.91 80.69 19.36 80.69 24.83V37.83A1 1 0 0 1 79.71 38.83" fill="#575c0e" data-fill-palette-color="accent"></path><path d="M73 38.83A1 1 0 0 1 72 37.83 10.78 10.78 0 1 0 50.44 37.83 1 1 0 1 1 48.44 37.83 12.78 12.78 0 1 1 74 37.83 1 1 0 0 1 73 38.83" fill="#575c0e" data-fill-palette-color="accent"></path><path d="M35.69 85.07H20.29A1 1 0 0 1 19.29 84.07V73.26A1 1 0 0 1 21.29 73.26V83.07H34.69V73.26A1 1 0 0 1 36.69 73.26V84.07A1 1 0 0 1 35.69 85.07" fill="#575c0e" data-fill-palette-color="accent"></path><path d="M79.71 85.07H64.1A1 1 0 0 1 63.1 84.07V73.26A1 1 0 0 1 65.1 73.26V83.07H78.71V73.26A1 1 0 0 1 80.71 73.26V84.07A1 1 0 0 1 79.71 85.07" fill="#575c0e" data-fill-palette-color="accent"></path><path d="M76.29 38.83A1 1 0 0 1 75.29 37.83V27.62C75.29 23.26 74.19 20.56 68.69 20.56H31.31C25.81 20.56 24.71 23.26 24.71 27.62V37.83A1 1 0 0 1 22.71 37.83V27.62C22.71 23.4 23.71 18.56 31.31 18.56H68.69C76.31 18.56 77.29 23.4 77.29 27.62V37.83A1 1 0 0 1 76.29 38.83" fill="#575c0e" data-fill-palette-color="accent"></path><path d="M69.49 38.8A1 1 0 0 1 68.49 37.8 7.28 7.28 0 1 0 53.93 37.8 1 1 0 0 1 51.93 37.8 9.28 9.28 0 1 1 70.49 37.8 1 1 0 0 1 69.49 38.8" fill="#575c0e" data-fill-palette-color="accent"></path></svg></g></svg></g></svg></g><defs></defs></svg><rect width="395.52" height="92.8805597150003" fill="none" stroke="none" visibility="hidden"></rect></g></svg></g></svg>